# xmcd
#
# Track frame offsets: 
#        150
#        18542
#        30709
#        42066
#        56009
#        71631
#        92171
#        109511
#        122888
#        136452
#        140884
#        160196
#        177222
#        192284
#        212396
#        236174
#        250296
#        268326
#
# Disc length: 3747 seconds
#
# Revision: 0
# Processed by: cddbd v1.5.2PL0 Copyright (c) Steve Scherf et al.
# Submitted via: ExactAudioCopy v0.99pb4
#
DISCID=0d0ea112
DTITLE=Varios Artists - My Son (Remastered)
DYEAR=1984
DGENRE=Country
TTITLE0=Don Williams - I Believe In Love
TTITLE1=The Who - It Is A Boy
TTITLE2=Oak Ridge Boys - Thank God For Kids
TTITLE3=Willie Nelson - My Heroes Have Always Been Cowboys
TTITLE4=Willie Nelson - Mamas Don't Let Your Babies Grow Up To Be Cowb
TTITLE4=oys
TTITLE5=Alabama - The Closer You Get
TTITLE6=Kenny Rogers and Sheena Easton - We've Got Tonight
TTITLE7=Mickey Gilley - You've Really Got A Hold On Me
TTITLE8=Conway Twitty - The Games That Daddies Play
TTITLE9=Conway Twitty - Danny Boy (Intro) 
TTITLE10=Neil Diamond - America
TTITLE11=John Denver - I Want To Live
TTITLE12=Charlie Daniels - In America
TTITLE13=Arlo Guthrie - City Of New Orleans
TTITLE14=Eagles - New Kid In Town
TTITLE15=Lee Greenwood - God Bless The USA
TTITLE16=Charlie Daniels - The South's Gonna Do It
TTITLE17=Charlie Daniels - Stroker's Theme
EXTD=
EXTT0=
EXTT1=
EXTT2=
EXTT3=
EXTT4=
EXTT5=
EXTT6=
EXTT7=
EXTT8=
EXTT9=
EXTT10=
EXTT11=
EXTT12=
EXTT13=
EXTT14=
EXTT15=
EXTT16=
EXTT17=
PLAYORDER=
